<?xml version="1.0" standalone="no"?><!DOCTYPE svg PUBLIC "-//W3C//DTD SVG 1.1//EN" "http://www.w3.org/Graphics/SVG/1.1/DTD/svg11.dtd"><svg t="1697040873534" class="icon" viewBox="0 0 1024 1024" version="1.1" xmlns="http://www.w3.org/2000/svg" p-id="5960" xmlns:xlink="http://www.w3.org/1999/xlink" width="300" height="300"><path d="M148.82 866.02c-20.99 0-38-17.01-38-38V165.35c0-42.88 33.81-77.76 75.36-77.76h650.31c41.55 0 75.36 34.88 75.36 77.76v304.72c0 20.99-17.01 38-38 38s-38-17.01-38-38V165.35c0-0.86-0.21-1.43-0.4-1.76H187.22c-0.19 0.33-0.4 0.9-0.4 1.76v662.68c0 20.98-17.01 37.99-38 37.99z" p-id="5961"></path><path d="M700.27 334.88H286.81c-20.99 0-38-17.01-38-38s17.01-38 38-38h413.45c20.99 0 38 17.01 38 38 0.01 20.99-17.01 38-37.99 38zM510.66 491.51H288.95c-20.99 0-38-17.01-38-38s17.01-38 38-38h221.72c20.99 0 38 17.01 38 38-0.01 20.98-17.02 38-38.01 38zM778.93 930.39H669.04c-34.98 0-67.58-18.82-85.07-49.12l-54.94-95.17c-17.49-30.3-17.49-67.94 0-98.23l54.94-95.17c17.49-30.29 50.09-49.12 85.07-49.12h109.89c34.98 0 67.58 18.82 85.07 49.12l54.94 95.17c17.49 30.29 17.49 67.93 0 98.23L864 881.27c-17.49 30.3-50.09 49.12-85.07 49.12z m-109.89-310.8c-7.92 0-15.29 4.26-19.25 11.12l-54.94 95.17a22.284 22.284 0 0 0 0 22.23l54.95 95.17c3.96 6.86 11.33 11.12 19.25 11.12h109.89c7.92 0 15.29-4.26 19.25-11.12l54.94-95.17a22.284 22.284 0 0 0 0-22.23l-54.95-95.17c-3.96-6.86-11.33-11.12-19.25-11.12H669.04z" p-id="5962"></path><path d="M723.99 835.15c-54.12 0-98.16-44.03-98.16-98.16s44.03-98.16 98.16-98.16 98.16 44.03 98.16 98.16-44.04 98.16-98.16 98.16z m0-153.37c-30.44 0-55.21 24.77-55.21 55.21s24.77 55.21 55.21 55.21 55.21-24.77 55.21-55.21c-0.01-30.44-24.77-55.21-55.21-55.21z" p-id="5963"></path><path d="M455.8 936.43H232.9c-66.92 0-121.36-54.44-121.36-121.36s54.44-121.36 121.36-121.36h222.9c20.99 0 38 17.01 38 38s-17.01 38-38 38H232.9c-25.01 0-45.36 20.35-45.36 45.36s20.35 45.36 45.36 45.36h222.9c20.99 0 38 17.01 38 38 0 20.98-17.02 38-38 38z" p-id="5964"></path></svg>