<?xml version="1.0" standalone="no"?><!DOCTYPE svg PUBLIC "-//W3C//DTD SVG 1.1//EN" "http://www.w3.org/Graphics/SVG/1.1/DTD/svg11.dtd"><svg t="1699355344608" class="icon" viewBox="0 0 1024 1024" version="1.1" xmlns="http://www.w3.org/2000/svg" p-id="7139" xmlns:xlink="http://www.w3.org/1999/xlink" width="300" height="300"><path d="M855.1 957.4H168.9c-57.4 0-104.2-46.7-104.2-104.2V496.4c0-17.3 14-31.3 31.3-31.3s31.3 14 31.3 31.3v356.8c0 23 18.7 41.7 41.7 41.7h686.2c23 0 41.7-18.7 41.7-41.7V170.8c0-23-18.7-41.7-41.7-41.7h-267c-17.3 0-31.3-14-31.3-31.3s14-31.3 31.3-31.3h266.9c57.4 0 104.2 46.7 104.2 104.2v682.4c0 57.5-46.8 104.3-104.2 104.3z" p-id="7140"></path><path d="M84.9 156.9c147.7-19.9 225.8 42.6 188.9 116.5-5 10-9.4 19.9-20.5 19.8h-54.8c-17.2-0.1-26.8 19.9-16 33.3L348 531c8.2 10.1 23.7 10.1 31.9-0.1l183-203.5c10.7-13.4 1.3-34.2-15.9-34.2h-55.5c-10.4 0-18-7.1-20.3-17.3C409.4 4.5 185.7 90.1 84.9 156.9zM385.9 808.9H234.5c-1 0-1.9-0.8-1.9-1.9V654c0-1 0.8-1.9 1.9-1.9h151.4c1 0 1.9 0.8 1.9 1.9v153c0 1.1-0.8 1.9-1.9 1.9zM589.4 808.9h-151c-1.1 0-2.1-0.9-2.1-2.1V585.7c0-1.1 0.9-2.1 2.1-2.1h151.1c1.1 0 2.1 0.9 2.1 2.1v221.2c-0.1 1.1-1 2-2.2 2zM793.1 808.9h-151c-1.1 0-2.1-0.9-2.1-2.1V517.2c0-1.1 0.9-2.1 2.1-2.1h151.1c1.1 0 2.1 0.9 2.1 2.1v289.6c-0.1 1.2-1 2.1-2.2 2.1z" p-id="7141"></path></svg>