<?xml version="1.0" standalone="no"?><!DOCTYPE svg PUBLIC "-//W3C//DTD SVG 1.1//EN" "http://www.w3.org/Graphics/SVG/1.1/DTD/svg11.dtd"><svg t="1697040985030" class="icon" viewBox="0 0 1024 1024" version="1.1" xmlns="http://www.w3.org/2000/svg" p-id="8821" xmlns:xlink="http://www.w3.org/1999/xlink" width="300" height="300"><path d="M516.79044458 956.34033781c-236.29495312 0-428.51167687-199.86014906-428.51167687-445.5123 0-148.24132125 70.60742719-286.33711031 188.89200562-369.45507656a29.27123438 29.27123438 0 0 1 41.54184469 8.39748563 31.87616813 31.87616813 0 0 1-8.05473 43.15279125C208.82552521 264.38755156 148.05515239 383.2548125 148.05515239 510.82803781c0 211.37670094 165.44759719 383.37090937 368.73529219 383.37090938 203.356245 0 368.76956719-171.99420844 368.76956719-383.37090938 0-127.57322531-60.77037281-246.40621031-162.60273469-317.90479969a31.87616813 31.87616813 0 0 1-8.05473094-43.15279125 29.30550937 29.30550937 0 0 1 41.54184563-8.39748562c118.28457844 83.11796625 188.92628063 221.21375531 188.92628062 369.45507656 0 245.65215094-192.25099969 445.5123-428.58022781 445.5123zM623.52419614 157.79090188c-16.48649156 0-29.88819281-13.95010781-29.88819281-31.12210875v-30.2994975c0-17.17200094 13.40170125-31.08783281 29.88819281-31.08783375 16.52076656 0 29.88819281 13.91583281 29.88819282 31.08783375v30.2994975c0 17.17200094-13.36742531 31.12210875-29.88819282 31.12210875z m-24.16419281 70.09329562c-10.96814437 17.82323437-40.78778531 47.98563-82.8437625 47.98563-42.295905 0-71.77279219-30.36804844-82.50100875-48.32838469a31.80761812 31.80761812 0 0 1 9.63140156-42.8100375 29.23695938 29.23695938 0 0 1 41.02771407 9.6999525c0.78833531 1.23391594 12.68191688 19.26280313 31.84189312 19.26280313 19.70838375 0 32.39030062-19.15997625 32.49312656-19.33135406a29.27123438 29.27123438 0 0 1 41.33619281-9.42574875 31.80761812 31.80761812 0 0 1 9.01444313 42.94713937z m-142.34594344 375.31617844h269.09655844c16.52076656 0 29.88819281 13.91583281 29.88819187 31.08783281s-13.36742531 31.08783281-29.88819187 31.08783375h-269.09655844c-16.52076656 0-29.88819281-13.91583281-29.88819281-31.08783375s13.36742531-31.08783281 29.88819281-31.08783281z m0-176.14153781h269.09655844c16.52076656 0 29.88819281 13.91583281 29.88819187 31.08783281 0 17.137725-13.36742531 31.08783281-29.88819187 31.08783281h-269.09655844c-16.52076656 0-29.88819281-13.95010781-29.88819281-31.08783281 0-17.17200094 13.36742531-31.08783281 29.88819281-31.08783281zM410.12524395 157.79090188c-16.52076656 0-29.92246781-13.95010781-29.92246781-31.12210875v-30.2994975c0-17.17200094 13.40170125-31.08783281 29.92246781-31.08783375 16.48649156 0 29.88819281 13.91583281 29.88819188 31.08783375v30.2994975c0 17.17200094-13.40170125 31.12210875-29.88819188 31.12210875zM327.45285833 665.3760425h-19.9483125c-16.52076656 0-29.88819281-13.91583281-29.88819188-31.08783375s13.36742531-31.08783281 29.88819188-31.08783281h19.9483125c16.52076656 0 29.88819281 13.91583281 29.88819281 31.08783281s-13.36742531 31.08783281-29.88819281 31.08783375z m0-176.14153875h-19.9483125c-16.52076656 0-29.88819281-13.95010781-29.88819188-31.08783281 0-17.17200094 13.36742531-31.08783281 29.88819188-31.08783282h19.9483125c16.52076656 0 29.88819281 13.91583281 29.88819281 31.08783282 0 17.137725-13.36742531 31.08783281-29.88819281 31.08783281z" p-id="8822"></path></svg>