<?xml version="1.0" standalone="no"?><!DOCTYPE svg PUBLIC "-//W3C//DTD SVG 1.1//EN" "http://www.w3.org/Graphics/SVG/1.1/DTD/svg11.dtd"><svg t="1696956782635" class="icon" viewBox="0 0 1024 1024" version="1.1" xmlns="http://www.w3.org/2000/svg" p-id="10437" width="500" height="500" xmlns:xlink="http://www.w3.org/1999/xlink"><path d="M500.224 63.36c-145.408 0-264 116.736-264 261.568 0 144.896 118.592 263.04 264 263.04 145.408 0 264-118.144 264-263.04C762.816 181.504 645.632 63.36 500.224 63.36z m0 461.312a199.936 199.936 0 0 1-200.448-199.68c0-111.168 90.368-198.4 200.448-198.4a198.4 198.4 0 0 1 199.04 198.4 199.68 199.68 0 0 1-199.04 199.68z m264 367.168H216.512c0-19.712 2.816-39.424 7.04-59.136 15.552-68.864 55.04-130.752 118.592-182.848a29.376 29.376 0 0 0 11.264-22.464 42.048 42.048 0 0 0-8.448-25.344 35.392 35.392 0 0 0-25.408-11.264 34.688 34.688 0 0 0-22.592 8.448c-93.184 78.72-127.04 164.608-141.184 222.272-14.08 63.296-5.632 109.696-5.632 111.104l5.632 26.752h615.488c15.552-2.816 26.816-18.304 26.816-33.792a33.408 33.408 0 0 0-33.92-33.728z" fill="#666666" p-id="10438"></path><path d="M433.92 834.112l74.752 68.928 74.88-68.928-63.552-147.648c-1.408-4.224-1.408-9.856 2.816-12.672 12.672-14.08 22.592-30.976 29.632-47.808a68.48 68.48 0 0 0-40.96-14.08c-15.488 0-33.856 5.632-46.528 14.08 7.04 16.832 16.896 33.728 29.632 47.808 4.224 4.224 4.224 8.448 2.816 12.672l-63.552 147.648z" fill="#666666" p-id="10439"></path><path d="M633.28 678.848h282.304v56.256H633.28z" fill="#666666" p-id="10440"></path><path d="M746.24 566.336h56.448v281.344h-56.448z" fill="#666666" p-id="10441"></path></svg>