<?xml version="1.0" standalone="no"?><!DOCTYPE svg PUBLIC "-//W3C//DTD SVG 1.1//EN" "http://www.w3.org/Graphics/SVG/1.1/DTD/svg11.dtd"><svg t="1699355450100" class="icon" viewBox="0 0 1024 1024" version="1.1" xmlns="http://www.w3.org/2000/svg" p-id="8168" xmlns:xlink="http://www.w3.org/1999/xlink" width="300" height="300"><path d="M896 768.39 561.896 768.39l138.978 166.243c3.125 3.125 3.125 8.192 0 11.317l-11.317 11.317c-3.125 3.125-8.192 3.125-11.317 0L520.341 768.39l-16.685 0-157.899 188.877c-3.125 3.125-8.192 3.125-11.317 0l-11.317-11.317c-3.125-3.125-3.125-8.192 0-11.317l138.978-166.243L128 768.39c-35.346 0-64-28.653-64-64l0-512c0-35.346 28.654-64 64-64l768 0c35.346 0 64 28.654 64 64l0 512C960 739.737 931.346 768.39 896 768.39zM927.998 192.391c0-17.674-14.326-32-32-32l-768 0c-17.674 0-32 14.326-32 32l0 512c0 17.674 14.326 32 32 32l768 0c17.674 0 32-14.326 32-32L927.998 192.391zM823.998 544.391l-240 0c-4.418 0-8-3.581-8-8l0-16c0-4.418 3.582-8 8-8l240 0c4.419 0 8 3.582 8 8l0 16C831.998 540.811 828.418 544.391 823.998 544.391zM823.998 448.391l-240 0c-4.418 0-8-3.581-8-8l0-16c0-4.418 3.582-8 8-8l240 0c4.419 0 8 3.582 8 8l0 16C831.998 444.811 828.418 448.391 823.998 448.391zM823.998 352.391l-240 0c-4.418 0-8-3.581-8-8l0-16c0-4.418 3.582-8 8-8l240 0c4.419 0 8 3.582 8 8l0 16C831.998 348.811 828.418 352.391 823.998 352.391zM509.526 475.47c-0.291 1.696-0.44 3.44-0.784 5.117-1.054 5.142-2.365 10.192-3.902 15.144-0.018 0.056-0.027 0.117-0.045 0.174-20.286 65.093-81.112 112.486-152.797 112.486-88.222 0-160-71.786-160-160.002 0-88.221 71.778-159.998 160-159.998s160 71.778 160 159.998c0 5.512-0.28 10.962-0.827 16.333C510.8 468.361 510.138 471.907 509.526 475.47zM351.998 320.391c-70.582 0-128 57.414-128 127.997 0 70.589 57.418 128.003 128 128.003L351.998 448.39l128 0c0 0 0 0 0-0.002C479.998 377.806 422.586 320.391 351.998 320.391z" p-id="8169"></path></svg>