<?xml version="1.0" standalone="no"?><!DOCTYPE svg PUBLIC "-//W3C//DTD SVG 1.1//EN" "http://www.w3.org/Graphics/SVG/1.1/DTD/svg11.dtd"><svg t="1697041069133" class="icon" viewBox="0 0 1024 1024" version="1.1" xmlns="http://www.w3.org/2000/svg" p-id="11713" xmlns:xlink="http://www.w3.org/1999/xlink" width="300" height="300"><path d="M444.4 512.9H92.8c-15.7 0-28.4-12.7-28.4-28.4V132.9c0-15.7 12.7-28.4 28.4-28.4h351.6c15.7 0 28.4 12.7 28.4 28.4v351.6c0 15.7-12.7 28.4-28.4 28.4z m-323.2-56.8H416V161.3H121.2v294.8zM931.2 512.9H579.6c-15.7 0-28.4-12.7-28.4-28.4V132.9c0-15.7 12.7-28.4 28.4-28.4h351.6c15.7 0 28.4 12.7 28.4 28.4v351.6c0 15.7-12.7 28.4-28.4 28.4zM608 456.1h294.8V161.3H608v294.8zM923.8 721h-824c-15.7 0-28.4-12.8-28.4-28.5S84.1 664 99.8 664h824c15.7 0 28.4 12.8 28.4 28.5S939.5 721 923.8 721z" fill="#666666" p-id="11714"></path><path d="M923.8 920h-824c-15.7 0-28.4-12.8-28.4-28.5S84.1 863 99.8 863h824c15.7 0 28.4 12.8 28.4 28.5S939.5 920 923.8 920z" fill="#666666" p-id="11715"></path></svg>